<svg xmlns="http://www.w3.org/2000/svg" xmlns:xlink="http://www.w3.org/1999/xlink" id="Layer_1" x="0px" y="0px" viewBox="0 0 668.96 353.95" style="enable-background:new 0 0 668.96 353.95;" xml:space="preserve"><style type="text/css">	.st0{fill:#AFAFAF;}	.st1{fill:#CCCCCC;}	.st2{fill:#BCBCBC;}	.st3{fill:#FFFFFF;}	.st4{fill:#5B5B5B;}	.st5{fill:#353535;}</style><g>	<g>		<polygon class="st0" points="578.78,259.92 501.23,312.77 484.47,351.78   "></polygon>		<polygon class="st0" points="611.12,133.18 529.65,111.62 485.97,78.09   "></polygon>		<polygon class="st0" points="633.04,125.15 595.62,77.28 593.04,60.38 580.59,29.25 598.49,50.26 608.52,79.49 619.64,99.85   "></polygon>		<polygon class="st0" points="581.57,101.66 546.33,54.56 475.51,11.36   "></polygon>		<polygon class="st0" points="619.16,214.53 565.69,229.85 522.44,263.94   "></polygon>		<polygon class="st0" points="637.01,227.88 575.79,289.16 565.7,318.29 556.92,337.33 584.13,301.87 594.47,283.9 613.84,256.26      "></polygon>	</g>	<g>		<polygon class="st1" points="578.78,259.92 501.23,312.77 484.47,351.78   "></polygon>		<polygon class="st1" points="611.12,133.18 529.65,111.62 485.97,78.09   "></polygon>		<polygon class="st1" points="633.04,125.15 595.62,77.28 593.04,60.38 580.59,29.25 598.49,50.26 608.52,79.49 619.64,99.85   "></polygon>		<polygon class="st1" points="581.57,101.66 546.33,54.56 475.51,11.36   "></polygon>		<polygon class="st1" points="619.16,214.53 565.69,229.85 522.44,263.94   "></polygon>		<polygon class="st1" points="637.01,227.88 575.79,289.16 565.7,318.29 556.92,337.33 584.13,301.87 594.47,283.9 613.84,256.26      "></polygon>	</g></g><g>	<path class="st0" d="M23.49,242.08h13.27l-1.23,4.62c5.19-3.66,10.65-5.5,16.37-5.5c3.94,0,6.98,0.6,9.12,1.8  c2.14,1.2,3.5,2.85,4.09,4.96c1.81-1.92,4.4-3.52,7.79-4.82c3.38-1.29,6.9-1.94,10.55-1.94c4.17,0,7.43,0.83,9.76,2.47  c2.33,1.65,3.5,3.83,3.5,6.55c-0.02,1.31-0.52,3.56-1.5,6.77l-6.87,23.21H74.28l6.81-23.2c0.84-2.91,1.27-4.56,1.31-4.95  c0-1.07-0.44-1.92-1.32-2.54c-0.88-0.62-2.2-0.93-3.96-0.93c-3.55,0-6.72,1.35-9.51,4.05c-2.03,1.94-3.75,5.37-5.18,10.3  l-4.98,17.27H43.4l6.63-23.02c0.75-2.65,1.13-4.38,1.13-5.16c0-1-0.47-1.83-1.41-2.47c-0.94-0.64-2.23-0.97-3.88-0.97  c-1.55,0-3.15,0.34-4.79,1c-1.65,0.67-3.09,1.59-4.32,2.76c-1.23,1.17-2.3,2.67-3.19,4.51c-0.42,0.86-1.11,2.8-2.06,5.84  l-4.94,17.52H12.53L23.49,242.08z"></path>	<path class="st0" d="M127.38,252.83l-13.75-0.84c1.57-3.38,4.32-6.02,8.23-7.92c3.92-1.9,9.1-2.86,15.56-2.86  c6.72,0,11.68,0.99,14.89,2.96c3.21,1.97,4.82,4.38,4.82,7.23c0,1.15-0.14,2.37-0.42,3.66c-0.28,1.29-1.25,4.69-2.91,10.19  c-1.37,4.54-2.05,7.73-2.05,9.54c0,1.63,0.38,3.43,1.14,5.42h-13.64c-0.61-1.38-0.98-2.82-1.12-4.3c-2.06,1.67-4.43,2.95-7.12,3.84  c-2.68,0.89-5.38,1.33-8.09,1.33c-4.32,0-7.88-1.04-10.7-3.11c-2.81-2.07-4.22-4.73-4.22-7.99c0-3.64,1.54-6.55,4.63-8.73  c3.09-2.18,8.61-3.5,16.55-3.95c6.7-0.41,11.18-0.9,13.44-1.47c0.59-1.42,0.88-2.56,0.88-3.41c0-1.09-0.61-2-1.81-2.74  c-1.21-0.73-3.01-1.1-5.39-1.1c-2.52,0-4.5,0.37-5.96,1.11C128.89,250.42,127.9,251.47,127.38,252.83z M140.76,262.33  c-0.85,0.17-1.98,0.32-3.38,0.47c-7.06,0.62-11.67,1.54-13.83,2.74c-1.54,0.87-2.3,2.03-2.3,3.5c0,1.2,0.59,2.22,1.77,3.05  c1.18,0.83,2.73,1.24,4.66,1.24c2.13,0,4.13-0.38,6.01-1.13c1.88-0.76,3.29-1.73,4.22-2.92c0.93-1.19,1.76-3.05,2.48-5.57  L140.76,262.33z"></path>	<path class="st0" d="M216.83,280.2h-13.4l1.21-4.18c-2.55,1.81-5.07,3.1-7.54,3.88c-2.47,0.78-5.26,1.17-8.37,1.17  c-5.4,0-9.78-1.34-13.14-4.03c-3.36-2.69-5.03-6.66-5.03-11.92c0-6.1,2.38-11.61,7.16-16.53c4.77-4.92,11.09-7.39,18.94-7.39  c7.09,0,12.41,2.08,15.96,6.22l5.95-19.72h14.05L216.83,280.2z M184.31,264.72c0,2.71,0.95,4.82,2.85,6.33  c1.9,1.52,4.24,2.28,7.01,2.28c2.58,0,4.98-0.63,7.21-1.9c2.23-1.27,4.01-3.21,5.35-5.82c1.34-2.61,2.01-5.11,2.01-7.51  c0-2.73-1.03-4.93-3.07-6.62c-2.05-1.68-4.41-2.53-7.09-2.53c-4.16,0-7.58,1.66-10.26,4.98  C185.64,257.26,184.31,260.85,184.31,264.72z"></path>	<path class="st0" d="M246.33,242.08h13.4l-1.37,5.04c3.38-2.13,6.54-3.65,9.47-4.56c2.93-0.91,6.03-1.36,9.28-1.36  c4.34,0,7.76,0.91,10.27,2.74c2.5,1.82,3.76,4.25,3.76,7.26c-0.03,1.33-0.6,3.85-1.72,7.56l-6.37,21.44h-14.05l6.33-21.51  c0.93-3.22,1.45-5.15,1.56-5.79c0-1.34-0.55-2.4-1.64-3.17c-1.09-0.77-2.61-1.16-4.56-1.16c-2.12,0-4.47,0.63-7.05,1.9  c-2.59,1.27-4.62,2.94-6.09,5.02c-1.08,1.48-2.29,4.51-3.63,9.07l-4.49,15.63h-14.05L246.33,242.08z"></path>	<path class="st0" d="M352.57,264.33h-35.39c-0.03,0.41-0.05,0.71-0.05,0.93c0,2.53,1,4.57,2.99,6.12c1.99,1.55,4.42,2.33,7.29,2.33  c4.71,0,8.38-1.75,11.02-5.25l12.62,1.5c-2.46,3.71-5.76,6.49-9.88,8.34c-4.12,1.86-8.75,2.78-13.87,2.78  c-7.03,0-12.75-1.62-17.15-4.86c-4.4-3.24-6.6-7.53-6.6-12.86c0-5.21,1.98-9.85,5.95-13.91c5.41-5.5,13.12-8.25,23.16-8.25  c6.39,0,11.47,1.44,15.24,4.32c3.77,2.88,5.65,6.91,5.65,12.1C353.56,260.11,353.23,262.34,352.57,264.33z M340.68,258.08  c0.03-0.45,0.05-0.8,0.05-1.04c0-2.82-0.87-4.94-2.61-6.35c-1.74-1.41-4.06-2.12-6.98-2.12c-2.92,0-5.53,0.8-7.84,2.4  c-2.31,1.6-3.88,3.97-4.69,7.1H340.68z"></path>	<path class="st0" d="M360.86,269.53l13.62-1.57c1.22,2.1,2.73,3.58,4.55,4.45c1.81,0.87,4.28,1.3,7.42,1.3  c3.23,0,5.81-0.52,7.76-1.57c1.35-0.71,2.03-1.58,2.03-2.61c0-0.69-0.35-1.31-1.03-1.86c-0.72-0.52-2.67-1.17-5.85-1.94  c-8.53-2.05-13.81-3.68-15.84-4.88c-3.18-1.86-4.77-4.3-4.77-7.31c0-3.01,1.54-5.61,4.62-7.78c4.29-3.04,10.66-4.55,19.11-4.55  c6.71,0,11.79,0.9,15.23,2.69c3.44,1.8,5.62,4.23,6.54,7.29l-13,1.64c-0.69-1.38-1.8-2.42-3.35-3.11c-2.1-0.93-4.63-1.39-7.58-1.39  c-2.95,0-5.08,0.36-6.38,1.07c-1.3,0.71-1.94,1.54-1.94,2.46c0,0.95,0.65,1.74,1.97,2.36c0.82,0.38,3.46,1.05,7.92,2.01  c6.88,1.46,11.49,2.89,13.82,4.3c3.28,1.98,4.92,4.38,4.92,7.17c0,3.61-2.08,6.74-6.25,9.39c-4.17,2.65-10.04,3.98-17.62,3.98  c-7.54,0-13.38-1.01-17.49-3.03C365.14,276.03,362.34,273.19,360.86,269.53z"></path>	<path class="st0" d="M421.92,269.53l13.62-1.57c1.22,2.1,2.73,3.58,4.55,4.45c1.81,0.87,4.28,1.3,7.42,1.3  c3.23,0,5.81-0.52,7.76-1.57c1.35-0.71,2.03-1.58,2.03-2.61c0-0.69-0.35-1.31-1.03-1.86c-0.72-0.52-2.67-1.17-5.85-1.94  c-8.53-2.05-13.81-3.68-15.84-4.88c-3.18-1.86-4.77-4.3-4.77-7.31c0-3.01,1.54-5.61,4.62-7.78c4.29-3.04,10.66-4.55,19.11-4.55  c6.71,0,11.79,0.9,15.23,2.69c3.44,1.8,5.62,4.23,6.54,7.29l-13,1.64c-0.69-1.38-1.8-2.42-3.35-3.11c-2.1-0.93-4.63-1.39-7.58-1.39  c-2.96,0-5.08,0.36-6.38,1.07c-1.3,0.71-1.94,1.54-1.94,2.46c0,0.95,0.65,1.74,1.97,2.36c0.82,0.38,3.46,1.05,7.92,2.01  c6.88,1.46,11.49,2.89,13.82,4.3c3.28,1.98,4.92,4.38,4.92,7.17c0,3.61-2.08,6.74-6.25,9.39c-4.17,2.65-10.04,3.98-17.62,3.98  c-7.54,0-13.38-1.01-17.49-3.03C426.19,276.03,423.39,273.19,421.92,269.53z"></path></g><g>	<path d="M21.78,238.5h13.27l-1.23,4.62c5.19-3.66,10.65-5.5,16.37-5.5c3.94,0,6.98,0.6,9.12,1.8c2.14,1.2,3.5,2.85,4.09,4.96  c1.81-1.92,4.4-3.52,7.79-4.82c3.38-1.29,6.9-1.94,10.55-1.94c4.17,0,7.43,0.83,9.76,2.47c2.33,1.65,3.5,3.83,3.5,6.55  c-0.02,1.31-0.52,3.56-1.5,6.77l-6.87,23.21H72.57l6.81-23.2c0.84-2.91,1.27-4.56,1.31-4.95c0-1.07-0.44-1.92-1.32-2.54  c-0.88-0.62-2.2-0.93-3.96-0.93c-3.55,0-6.72,1.35-9.51,4.05c-2.03,1.94-3.75,5.37-5.18,10.3l-4.98,17.27H41.69l6.63-23.02  c0.75-2.65,1.13-4.38,1.13-5.16c0-1-0.47-1.83-1.41-2.47c-0.94-0.64-2.23-0.97-3.88-0.97c-1.55,0-3.15,0.34-4.79,1  c-1.65,0.67-3.09,1.59-4.32,2.76c-1.23,1.17-2.3,2.67-3.19,4.51c-0.42,0.86-1.11,2.8-2.06,5.84l-4.94,17.52H10.82L21.78,238.5z"></path>	<path d="M125.66,249.25l-13.75-0.84c1.57-3.38,4.32-6.02,8.23-7.92c3.92-1.9,9.1-2.86,15.56-2.86c6.72,0,11.68,0.99,14.89,2.96  c3.21,1.97,4.82,4.38,4.82,7.23c0,1.15-0.14,2.37-0.42,3.66c-0.28,1.29-1.25,4.69-2.91,10.19c-1.37,4.54-2.05,7.73-2.05,9.54  c0,1.63,0.38,3.43,1.14,5.42h-13.64c-0.61-1.38-0.98-2.82-1.12-4.3c-2.06,1.67-4.43,2.95-7.12,3.84c-2.68,0.89-5.38,1.33-8.09,1.33  c-4.32,0-7.88-1.04-10.7-3.11c-2.81-2.07-4.22-4.73-4.22-7.99c0-3.64,1.54-6.55,4.63-8.73c3.09-2.18,8.61-3.5,16.55-3.95  c6.7-0.41,11.18-0.9,13.44-1.47c0.59-1.42,0.88-2.56,0.88-3.41c0-1.09-0.61-2-1.81-2.74c-1.21-0.73-3.01-1.1-5.39-1.1  c-2.52,0-4.5,0.37-5.96,1.11C127.18,246.84,126.19,247.89,125.66,249.25z M139.05,258.75c-0.85,0.17-1.98,0.32-3.38,0.47  c-7.06,0.62-11.67,1.54-13.83,2.74c-1.54,0.87-2.3,2.03-2.3,3.5c0,1.2,0.59,2.22,1.77,3.05c1.18,0.83,2.73,1.24,4.66,1.24  c2.12,0,4.13-0.38,6.01-1.13c1.88-0.76,3.29-1.73,4.22-2.92c0.93-1.19,1.76-3.05,2.48-5.57L139.05,258.75z"></path>	<path d="M215.12,276.62h-13.4l1.21-4.18c-2.55,1.81-5.07,3.1-7.54,3.88c-2.47,0.78-5.26,1.17-8.37,1.17  c-5.4,0-9.78-1.34-13.14-4.03c-3.36-2.69-5.03-6.66-5.03-11.92c0-6.1,2.38-11.61,7.16-16.53c4.77-4.92,11.09-7.39,18.94-7.39  c7.09,0,12.41,2.08,15.96,6.22l5.95-19.72h14.05L215.12,276.62z M182.59,261.13c0,2.7,0.95,4.82,2.85,6.33  c1.9,1.52,4.24,2.28,7.01,2.28c2.58,0,4.98-0.63,7.21-1.9c2.23-1.27,4.01-3.21,5.35-5.82c1.34-2.61,2.01-5.11,2.01-7.51  c0-2.73-1.03-4.93-3.07-6.62c-2.05-1.68-4.41-2.53-7.09-2.53c-4.16,0-7.58,1.66-10.26,4.98S182.59,257.27,182.59,261.13z"></path>	<path d="M244.62,238.5h13.4l-1.37,5.04c3.38-2.13,6.54-3.65,9.47-4.56c2.93-0.91,6.03-1.36,9.28-1.36c4.34,0,7.76,0.91,10.27,2.74  c2.5,1.82,3.76,4.25,3.76,7.26c-0.03,1.33-0.6,3.85-1.72,7.56l-6.37,21.44h-14.05l6.33-21.51c0.93-3.22,1.45-5.15,1.56-5.79  c0-1.34-0.55-2.4-1.64-3.17c-1.09-0.77-2.61-1.16-4.56-1.16c-2.12,0-4.47,0.63-7.05,1.9c-2.59,1.27-4.62,2.94-6.09,5.02  c-1.08,1.48-2.29,4.51-3.63,9.07l-4.49,15.63h-14.05L244.62,238.5z"></path>	<path d="M350.86,260.75h-35.39c-0.03,0.41-0.05,0.71-0.05,0.93c0,2.53,1,4.57,2.99,6.12c1.99,1.55,4.42,2.33,7.29,2.33  c4.71,0,8.38-1.75,11.02-5.25l12.62,1.5c-2.46,3.71-5.76,6.49-9.88,8.34c-4.12,1.86-8.75,2.78-13.87,2.78  c-7.03,0-12.75-1.62-17.15-4.86c-4.4-3.24-6.6-7.53-6.6-12.86c0-5.21,1.98-9.85,5.95-13.91c5.41-5.5,13.12-8.25,23.16-8.25  c6.39,0,11.47,1.44,15.24,4.32c3.77,2.88,5.65,6.91,5.65,12.1C351.85,256.53,351.52,258.76,350.86,260.75z M338.97,254.5  c0.03-0.45,0.05-0.8,0.05-1.04c0-2.82-0.87-4.94-2.61-6.35c-1.74-1.41-4.06-2.12-6.98-2.12c-2.92,0-5.53,0.8-7.84,2.4  c-2.31,1.6-3.88,3.97-4.69,7.1H338.97z"></path>	<path d="M359.15,265.94l13.62-1.57c1.22,2.1,2.73,3.58,4.55,4.45c1.81,0.87,4.28,1.3,7.42,1.3c3.23,0,5.81-0.52,7.76-1.57  c1.35-0.71,2.03-1.58,2.03-2.61c0-0.69-0.35-1.31-1.03-1.86c-0.72-0.52-2.67-1.17-5.85-1.94c-8.53-2.05-13.81-3.68-15.84-4.88  c-3.18-1.86-4.77-4.3-4.77-7.31s1.54-5.61,4.62-7.78c4.29-3.04,10.66-4.55,19.11-4.55c6.71,0,11.79,0.9,15.23,2.69  c3.44,1.8,5.62,4.23,6.54,7.29l-13,1.64c-0.69-1.38-1.8-2.42-3.35-3.11c-2.1-0.93-4.63-1.39-7.58-1.39c-2.96,0-5.08,0.36-6.38,1.07  c-1.3,0.71-1.94,1.54-1.94,2.46c0,0.95,0.65,1.74,1.97,2.36c0.82,0.38,3.46,1.05,7.92,2.01c6.88,1.46,11.49,2.89,13.82,4.3  c3.28,1.98,4.92,4.38,4.92,7.17c0,3.61-2.08,6.74-6.25,9.39c-4.17,2.65-10.04,3.98-17.62,3.98c-7.54,0-13.38-1.01-17.49-3.03  C363.42,272.44,360.63,269.6,359.15,265.94z"></path>	<path d="M420.21,265.94l13.62-1.57c1.22,2.1,2.73,3.58,4.55,4.45c1.81,0.87,4.28,1.3,7.42,1.3c3.23,0,5.81-0.52,7.76-1.57  c1.35-0.71,2.03-1.58,2.03-2.61c0-0.69-0.35-1.31-1.03-1.86c-0.72-0.52-2.67-1.17-5.85-1.94c-8.53-2.05-13.81-3.68-15.84-4.88  c-3.18-1.86-4.77-4.3-4.77-7.31s1.54-5.61,4.62-7.78c4.29-3.04,10.66-4.55,19.11-4.55c6.71,0,11.79,0.9,15.23,2.69  c3.44,1.8,5.62,4.23,6.54,7.29l-13,1.64c-0.69-1.38-1.8-2.42-3.35-3.11c-2.1-0.93-4.63-1.39-7.58-1.39c-2.96,0-5.08,0.36-6.38,1.07  c-1.3,0.71-1.94,1.54-1.94,2.46c0,0.95,0.65,1.74,1.97,2.36c0.82,0.38,3.46,1.05,7.92,2.01c6.88,1.46,11.49,2.89,13.82,4.3  c3.28,1.98,4.92,4.38,4.92,7.17c0,3.61-2.08,6.74-6.25,9.39c-4.17,2.65-10.04,3.98-17.62,3.98c-7.54,0-13.38-1.01-17.49-3.03  C424.48,272.44,421.68,269.6,420.21,265.94z"></path></g><g>	<path class="st2" d="M666.11,157.15V120.3c-23.78,0-47.56,20.21-47.56,20.21l-59.44-4.75c0,0-19.02-11.89-49.93-11.89  c-30.91,0-51.12,16.64-51.12,16.64c-4.76,0-55.88-3.57-55.88-3.57s-22.59-13.08-48.75-13.08c-26.16,0-45.18,19.02-45.18,19.02  s-44.76-2.17-60.63-8.32c-11.48-4.46-14.17-5.95-14.17-5.95s-185.56,0-208.15,0c-21.1,0-20.21,41.61-20.21,41.61  s-0.89,41.61,20.21,41.61c22.59,0,208.15,0,208.15,0s4.52-1.73,14.17-5.94c15.6-6.81,60.63-8.32,60.63-8.32  s19.02,19.02,45.18,19.02c26.16,0,48.75-13.08,48.75-13.08s51.12-3.57,55.88-3.57c0,0,20.21,16.64,51.12,16.64  c30.91,0,49.93-11.89,49.93-11.89l59.44-4.76c0,0,23.78,20.21,47.56,20.21v-36.86V157.15z"></path>	<path class="st3" d="M311.62,172.58l82.82-0.78c0,0-4.36,3.15-12.28,14.25C382.16,186.05,401.98,174.16,311.62,172.58z"></path>	<path class="st3" d="M544.29,171.69l-81.31-0.12c82.82-0.78,70.97,14.47,70.97,14.47L544.29,171.69"></path>	<polygon class="st3" points="279.13,176.88 275.95,181.69 241.05,181.75 241.05,177.32  "></polygon>	<g>		<path d="M645.7,144.45c0,0-36.86,24.97-48.74,38.84c0,0,9.91-9.11,14.66-9.11c4.75,0,34.87-0.34,34.87-0.34   s-5.15,17.38-14.27,22.13l25.76-0.39c0,0,6.74,0.79,6.74,4.36v-71.73c0,0-7.02,25.87-12.57,33.8h-19.42   C632.73,162,638.17,151.98,645.7,144.45z"></path>		<path d="M587.05,182.89c0,0,27.34-25.36,34.48-29.72c0,0-3.96-10.3,1.98-14.27c0,0-28.53,17.83-47.56,35.67   c0,0-24.32,13.09,3.4-12.45H475.12c0,0,4.53-27.97,38.21-32.33c0,0-36.46-12.68-103.04,49.14c0,0,6.57-12.06,13.7-18H317.79   c0,0,15.23-30.35,36.63-33.52c0,0-25.66-1.03-64.1,43.36c0,0,32.75-36.33,50.98-45.44c0,0-31.27,1.69-56.23,37.75l-43.6-0.18   c0,0-0.32,3.42-0.41,14.42l37.67,0.03c0,0,6.74-9.11,16.64-18.62c0,0-9.91,15.46-14.66,22.19c0,0,9.12-10.7,75.3-9.11h38.44   c0,0-27.08,32.65-40.82,36.06c0,0-21.67,5.01-45.08-10.1c0,0,16.55,19.22,43.89,16.44c0,0,17.83,0,42.4-19.81   c0,0,19.42-13.87,37.25-25.36c0,0,3.57,3.57-2.77,13.48c0,0,19.42-19.02,30.91-25.36c0,0-3.57,10.7-7.53,14.66h95.11   c0,0-18.63,30.51-39.23,34.48c-20.61,3.96-35.67-1.98-42.8-6.74c0,0,29.72,31.71,71.73,5.55c0,0,42.4-26.95,51.92-34.08   C589.42,171.01,589.82,180.12,587.05,182.89z"></path>	</g>	<g>		<path class="st3" d="M280.71,180.91c0,0,39.95-50.28,60.59-55.58c0,0-22.54,12.77-20.17,21.88   C321.13,147.21,319.55,141.68,280.71,180.91z"></path>		<path class="st3" d="M405.15,183.27c0,0,48.75-53.1,84.81-56.27c0,0-23.38,11.89-19.82,22.98   C470.14,149.99,468.05,132.13,405.15,183.27z"></path>		<path class="st3" d="M416.61,179.31c0,0,13.96-10.38,17.07-13.07c0,0,13.95-10.34-4.36,16.26   C429.32,182.5,425.72,174.15,416.61,179.31z"></path>		<path class="st3" d="M434.85,178.68c0,0,20.38-19.24,25.2-21.48C460.05,157.2,459.36,167.49,434.85,178.68z"></path>		<path class="st3" d="M570.41,176.15c0,0,32.1-31.31,53.5-40.42C623.91,135.73,584.68,169.41,570.41,176.15z"></path>		<path class="st3" d="M574.37,183.67c0,0,15.06-16.25,13.08-2.38C587.45,181.29,582.29,176.93,574.37,183.67z"></path>		<path class="st3" d="M594.8,178.15c0,0,26.99-25.26,34.65-27.37c0,0-28.54,24.19-32.5,32.51   C596.95,183.29,599.16,175.38,594.8,178.15z"></path>		<path class="st3" d="M639.79,175.5c0,0,1.5,0,5.19-0.46c0,0-6.11,16.61-14.76,21.11C630.22,196.14,642.79,182.99,639.79,175.5z"></path>		<path class="st3" d="M637.88,160.54c0,0,17.83-4.36,19.02-11.1C656.9,149.44,655.32,162.12,637.88,160.54z"></path>	</g>	<path class="st4" d="M501.91,144.1l32.05-2.08c0,0,9.47-1.45,13.04-1.55c3.57-0.1,10.61-3.27,27.07,11.14L501.91,144.1z"></path>	<path class="st4" d="M331.53,143.96c0,0,14.95-15.41,60.03,5.68L331.53,143.96z"></path>	<path class="st4" d="M515.12,209.43c0,0,37.45-33.29,68.96-50.53c0,0-57.07,40.42-20.21,22.59  C563.86,181.49,528.14,207.33,515.12,209.43z"></path>	<path class="st4" d="M358.19,209.43c0,0,37.45-33.29,68.96-50.53c0,0-58.85,42.21-21.99,24.37  C405.15,183.27,387.91,195.76,358.19,209.43z"></path>	<path class="st4" d="M254.06,201.13c8.32-7.13,15.56-16.66,15.56-16.66c-27.85,18.48-28.53,7.73-28.53,7.73  c-1.19-49.34,10.26-53.48,10.26-53.48s-1.47,0.3-4.75-1.19c-3.29-1.49-10.27-4.8-10.27-4.8v75.53c0,0,7.19-2.39,12.65-5.43  C251.67,201.32,254.06,201.13,254.06,201.13z"></path></g><path d="M233.44,211.6c-188.36,0-188.35,0-210.95,0c-21.1,0-20.21-42.14-20.21-42.14S1.4,128.61,22.5,128.61 c22.72,0,22.58,0.01,210.95,0.01V211.6z"></path><polygon class="st5" points="2.35,173.19 233.38,173.19 233.47,162.48 2.53,162.48 "></polygon><g>	<path class="st3" d="M78.54,197.63H35.4c-5.45,0-10.09-1.91-13.93-5.74c-3.84-3.83-5.75-8.46-5.75-13.9v-17.98  c0-5.44,1.91-10.07,5.75-13.89c3.84-3.83,8.48-5.74,13.93-5.74h43.13c0,4.21-2.04,7.81-6.12,10.79c-4.08,2.98-8.98,4.46-14.72,4.46  H35.51c-3.02,0-4.53,1.5-4.53,4.48v17.78c0,2.99,1.51,4.48,4.53,4.48H57.7c5.73,0,10.64,1.49,14.72,4.47  C76.5,189.82,78.54,193.41,78.54,197.63z"></path>	<path class="st3" d="M150.22,197.63c-4.14,0-7.65-2.03-10.53-6.1c-2.88-4.06-4.37-8.96-4.47-14.68v-16.71  c0-3.01-1.51-4.52-4.54-4.52h-23.43c-3.02,0-4.54,1.51-4.54,4.52v16.71c-0.1,5.72-1.62,10.61-4.54,14.68  c-2.93,4.07-6.5,6.1-10.71,6.1v-37.61c0-5.44,1.91-10.07,5.75-13.89c3.83-3.83,8.46-5.74,13.91-5.74h23.44  c5.44,0,10.08,1.91,13.91,5.74c3.83,3.83,5.75,8.46,5.75,13.89V197.63z"></path>	<path class="st3" d="M222.01,197.63h-43.13c-5.45,0-10.09-1.91-13.93-5.74c-3.84-3.83-5.75-8.46-5.75-13.9v-17.98  c0-5.44,1.91-10.07,5.75-13.89c3.84-3.83,8.48-5.74,13.93-5.74h43.13c0,4.21-2.04,7.81-6.12,10.79c-4.08,2.98-8.98,4.46-14.72,4.46  h-22.19c-3.02,0-4.53,1.5-4.53,4.48v17.78c0,2.99,1.51,4.48,4.53,4.48h22.19c5.73,0,10.64,1.49,14.72,4.47  C219.97,189.82,222.01,193.41,222.01,197.63z"></path></g><g>	<polygon points="580.78,250.92 503.23,303.77 486.47,342.78  "></polygon>	<polygon points="619.05,132.09 538.27,108.1 495.61,73.28  "></polygon>	<polygon points="638.04,122.15 600.62,74.28 598.04,57.38 585.59,26.25 603.49,47.26 613.52,76.49 624.64,96.85  "></polygon>	<polygon points="583.57,92.66 548.33,45.56 477.51,2.36  "></polygon>	<polygon points="620.84,210.41 566.59,222.67 521.47,254.25  "></polygon>	<polygon points="639.01,218.88 577.79,280.16 567.7,309.29 558.92,328.33 586.13,292.87 596.47,274.9 615.84,247.26  "></polygon></g></svg>