<svg xmlns="http://www.w3.org/2000/svg" xmlns:xlink="http://www.w3.org/1999/xlink" version="1.1" xml:space="preserve" viewBox="159.71 159.71 1600.57 1600.57">
<desc>Created with Fabric.js 5.3.0</desc>
<defs>
</defs>
<g transform="matrix(6.9188967185 0 0 6.9188967185 964.7244414172 956.2294878231)" id="MMdupn6hiWn0414q-0bLX">
<path style="stroke: rgb(154,127,96); stroke-width: 0; stroke-dasharray: none; stroke-linecap: butt; stroke-dashoffset: 0; stroke-linejoin: miter; stroke-miterlimit: 4; fill: rgb(48,49,49); fill-rule: nonzero; opacity: 1;" transform=" translate(0, 0)" d="M 0 -98.03922 C 54.11765 -98.03922 98.03922 -54.11765 98.03922 0 C 98.03922 54.11765 54.11765 98.03922 0 98.03922 C -54.11765 98.03922 -98.03922 54.11765 -98.03922 0 C -98.03922 -54.11765 -54.11765 -98.03922 0 -98.03922 z" stroke-linecap="round"/>
</g>
<g transform="matrix(1 0 0 1 960 960)" id="fQ4UsKF-p8BHitQQ3Sh1x">
<path style="stroke: rgb(46,150,156); stroke-width: 0; stroke-dasharray: none; stroke-linecap: butt; stroke-dashoffset: 0; stroke-linejoin: miter; stroke-miterlimit: 4; fill: rgb(80,229,157); fill-rule: nonzero; opacity: 1;" transform=" translate(0, 0)" d="M 0 -800.28505 C 441.75735 -800.28505 800.28505 -441.75735 800.28505 0 C 800.28505 441.75735 441.75735 800.28505 0 800.28505 C -441.75735 800.28505 -800.28505 441.75735 -800.28505 0 C -800.28505 -441.75735 -441.75735 -800.28505 0 -800.28505 z M -642.76979 0.00005 C -642.76979 355.28004 -354.4266099999999 643.62323 0.853390000000104 643.62323 C 356.1333800000001 643.62323 644.4765700000002 355.28005 644.4765700000002 0.00004999999998744897 C 644.4765700000002 -355.27994 356.13339000000013 -643.6231300000001 0.853390000000104 -643.6231300000001 C -354.4265999999999 -643.6231300000001 -642.76979 -355.27995000000004 -642.76979 0.00004999999998744897 z" stroke-linecap="round"/>
</g>
<g transform="matrix(0.908423891 0 0 0.908423891 962.4947983346 960)" id="bMJl9dImgGJkRJF0xwKxq">
<path style="stroke: rgb(0,0,0); stroke-width: 0; stroke-dasharray: none; stroke-linecap: butt; stroke-dashoffset: 0; stroke-linejoin: miter; stroke-miterlimit: 4; fill: rgb(72,206,255); fill-rule: nonzero; opacity: 1;" transform=" translate(0.0000025987, 0.0000021015)" d="M 99.19698 -455.04464 C 113.24786 -416.11755 133.82224 -384.78759 178.85583 -346.25914 C 223.88941 -307.7307 334.21382 -360.18905 411.09069999999997 -324.04654 C 487.96759 -287.90402 488.91265 -236.9692 482.73956999999996 -187.41409 C 476.56648999999993 -137.85898999999998 444.46968999999996 -112.09979999999999 400.89358999999996 -92.00394999999999 C 361.2485 -73.72094999999999 306.47651999999994 -80.59154 268.71981999999997 -113.18274999999998 C 254.70551999999998 -129.22149 244.70214999999996 -143.39883999999998 236.13679999999997 -160.65189999999998 C 195.97975999999997 -241.53960999999998 113.47937999999996 -292.70933 23.172069999999962 -292.74033999999995 L -31.27298000000004 -292.74033999999995 C -118.29254000000003 -292.74033999999995 -198.70190000000005 -246.31583999999995 -242.21148000000005 -170.95456999999993 L -271.72099000000003 -119.84228999999993 C -317.27499 -40.93996999999993 -317.27499 56.27149000000006 -271.72099000000003 135.17381000000006 L -241.32610000000003 187.81963000000007 C -198.36439000000001 262.23194000000007 -118.96757000000002 308.0718600000001 -33.04377000000002 308.0718600000001 L 18.29895999999998 308.0718600000001 C 109.47444999999998 308.23940000000005 191.85366999999997 253.69857000000007 227.30298 169.69652000000008 C 237.88166999999999 144.62885000000009 240.41885 122.19922000000008 281.70771 85.58461000000008 C 322.99657 48.970000000000084 388.11764000000005 51.871550000000084 419.12508 71.23807000000008 C 455.20554000000004 93.77307000000008 475.57572000000005 139.70213000000007 474.28404 184.8803000000001 C 472.99236 230.05847000000009 454.6548 271.5998800000001 395.31041 304.0095900000001 C 335.96602 336.41930000000013 278.93066 296.18042000000014 198.0566 343.9158400000001 C 117.18253 391.6512600000001 108.42132000000001 447.1798100000001 71.03716 486.4043100000001 C 33.65301 525.6288100000002 13.134480000000003 527.8035700000001 -29.975009999999997 529.6919900000001 C -73.08448999999999 531.5804100000001 -86.77789999999999 523.3558300000002 -128.59571 480.74901000000017 C -170.41352 438.14219000000014 -153.95213999999999 389.7638200000002 -207.32897 355.5555300000002 C -260.7058 321.3472400000002 -342.10303999999996 343.91584000000023 -342.10303999999996 343.91584000000023 C -342.10303999999996 343.91584000000023 -418.10332999999997 366.94346000000024 -451.42488999999995 320.8155200000002 C -484.7464499999999 274.6875800000002 -492.25095999999996 236.71507000000022 -478.57764999999995 191.28778000000023 C -464.90433999999993 145.86049000000023 -411.85218 123.32509000000023 -409.48512999999997 38.90046000000024 C -407.11807999999996 -45.524169999999756 -452.05994 -70.62843999999976 -466.51054 -112.75870999999975 C -480.96114 -154.88897999999975 -486.62442 -164.35508999999976 -476.61151 -207.32036999999974 C -466.59860000000003 -250.28564999999975 -439.58394 -278.5539699999997 -387.60901 -295.49779999999976 C -335.63408000000004 -312.44162999999975 -279.12936 -281.37964999999974 -207.32897 -327.9315499999998 C -135.52858 -374.4834599999998 -155.31937 -411.5842399999998 -118.2784 -463.8344599999998 C -81.23744 -516.0846699999998 -48.21276 -529.9394399999998 0.7061899999999923 -529.9394399999998 C 49.62512999999999 -529.9394399999998 85.14613999999999 -493.9717599999998 99.19702 -455.04466999999977 z" stroke-linecap="round"/>
</g>
</svg>