<?xml version="1.0" encoding="UTF-8" standalone="no"?>
<!-- Created with Inkscape (http://www.inkscape.org/) -->

<svg
   width="249.82651mm"
   height="193.61829mm"
   viewBox="0 0 249.82651 193.61828"
   version="1.1"
   id="svg1"
   xml:space="preserve"
   inkscape:version="1.3.2 (091e20e, 2023-11-25, custom)"
   sodipodi:docname="dronolab.svg"
   xmlns:inkscape="http://www.inkscape.org/namespaces/inkscape"
   xmlns:sodipodi="http://sodipodi.sourceforge.net/DTD/sodipodi-0.dtd"
   xmlns="http://www.w3.org/2000/svg"
   xmlns:svg="http://www.w3.org/2000/svg"><sodipodi:namedview
     id="namedview1"
     pagecolor="#505050"
     bordercolor="#ffffff"
     borderopacity="1"
     inkscape:showpageshadow="0"
     inkscape:pageopacity="0"
     inkscape:pagecheckerboard="1"
     inkscape:deskcolor="#505050"
     inkscape:document-units="mm"
     inkscape:zoom="1"
     inkscape:cx="472.5"
     inkscape:cy="354.5"
     inkscape:window-width="1920"
     inkscape:window-height="1017"
     inkscape:window-x="-8"
     inkscape:window-y="-8"
     inkscape:window-maximized="1"
     inkscape:current-layer="layer2"
     showguides="false"><sodipodi:guide
       position="7.5564214e-07,148.61276"
       orientation="1,0"
       id="guide6"
       inkscape:locked="false" /><sodipodi:guide
       position="4.8157277,151.35936"
       orientation="1,0"
       id="guide7"
       inkscape:locked="false" /><sodipodi:guide
       position="33.598984,160.18828"
       orientation="1,0"
       id="guide8"
       inkscape:locked="false" /><sodipodi:guide
       position="38.427629,150.00182"
       orientation="1,0"
       id="guide9"
       inkscape:locked="false" /><sodipodi:guide
       position="99.484398,169.1817"
       orientation="1,0"
       id="guide10"
       inkscape:locked="false" /><sodipodi:guide
       position="104.29025,135.65775"
       orientation="1,0"
       id="guide11"
       inkscape:locked="false" /><sodipodi:guide
       position="124.68181,199.19778"
       orientation="1,0"
       id="guide12"
       inkscape:locked="false" /><sodipodi:guide
       position="119.86538,171.76586"
       orientation="1,0"
       id="guide13"
       inkscape:locked="false" /><sodipodi:guide
       position="168.32134,178.32565"
       orientation="1,0"
       id="guide14"
       inkscape:locked="false" /><sodipodi:guide
       position="173.17395,178.98046"
       orientation="1,0"
       id="guide15"
       inkscape:locked="false" /><sodipodi:guide
       position="189.19052,152.23424"
       orientation="1,0"
       id="guide16"
       inkscape:locked="false" /><sodipodi:guide
       position="224.63641,152.04407"
       orientation="1,0"
       id="guide18"
       inkscape:locked="false" /><sodipodi:guide
       position="229.39064,182.0164"
       orientation="1,0"
       id="guide19"
       inkscape:locked="false" /><sodipodi:guide
       position="117.71386,200.61259"
       orientation="0,-1"
       id="guide21"
       inkscape:locked="false" /><sodipodi:guide
       position="116.98889,193.42137"
       orientation="0,-1"
       id="guide22"
       inkscape:locked="false" /><sodipodi:guide
       position="111.30607,196.3914"
       orientation="1,0"
       id="guide23"
       inkscape:locked="false" /><sodipodi:guide
       position="116.40424,196.85912"
       orientation="1,0"
       id="guide24"
       inkscape:locked="false" /><sodipodi:guide
       position="122.53139,198.00504"
       orientation="1,0"
       id="guide25"
       inkscape:locked="false" /><sodipodi:guide
       position="128.12066,196.67204"
       orientation="1,0"
       id="guide26"
       inkscape:locked="false" /><sodipodi:guide
       position="115.26429,199.55425"
       orientation="0,-1"
       id="guide27"
       inkscape:locked="false" /><sodipodi:guide
       position="114.67725,197.62057"
       orientation="0,-1"
       id="guide28"
       inkscape:locked="false" /><sodipodi:guide
       position="114.37132,196.56223"
       orientation="0,-1"
       id="guide29"
       inkscape:locked="false" /><sodipodi:guide
       position="113.52796,194.4797"
       orientation="0,-1"
       id="guide30"
       inkscape:locked="false" /><sodipodi:guide
       position="112.3644,195.46054"
       orientation="1,0"
       id="guide31"
       inkscape:locked="false" /><sodipodi:guide
       position="116.01256,197.17206"
       orientation="1,0"
       id="guide32"
       inkscape:locked="false" /><sodipodi:guide
       position="125.74014,199.55425"
       orientation="1,0"
       id="guide33"
       inkscape:locked="false" /><sodipodi:guide
       position="125.21097,246.4042"
       orientation="-1,0"
       id="guide34"
       inkscape:locked="false"
       inkscape:label=""
       inkscape:color="rgb(51,209,122)" /><inkscape:page
       x="0"
       y="0"
       width="249.82651"
       height="193.61829"
       id="page35"
       margin="0"
       bleed="0" /><sodipodi:guide
       position="126.23623,228.79095"
       orientation="0,-1"
       id="guide35"
       inkscape:locked="false" /><sodipodi:guide
       position="129.49236,35.172681"
       orientation="0,-1"
       id="guide36"
       inkscape:locked="false" /><sodipodi:guide
       position="249.82651,144.5887"
       orientation="1,0"
       id="guide37"
       inkscape:locked="false" /><sodipodi:guide
       position="44.021085,122.55699"
       orientation="1,0"
       id="guide4"
       inkscape:locked="false" /></sodipodi:namedview><defs
     id="defs1"><inkscape:path-effect
       effect="fillet_chamfer"
       id="path-effect10"
       is_visible="true"
       lpeversion="1"
       nodesatellites_param="F,0,0,1,0,1.0583333,0,1 @ F,0,0,1,0,1.0583333,0,1 @ F,0,0,1,0,1.0583333,0,1 @ F,0,0,1,0,1.0583333,0,1 @ F,0,0,1,0,1.0583333,0,1 @ F,0,0,1,0,1.0583333,0,1 | F,0,0,1,0,1.0583333,0,1 @ F,0,0,1,0,1.0583333,0,1 @ F,0,0,1,0,1.0583333,0,1 @ F,0,0,1,0,1.0583333,0,1 @ F,0,0,1,0,1.0583333,0,1 @ F,0,0,1,0,1.0583333,0,1"
       radius="4"
       unit="px"
       method="auto"
       mode="F"
       chamfer_steps="1"
       flexible="false"
       use_knot_distance="true"
       apply_no_radius="true"
       apply_with_radius="true"
       only_selected="false"
       hide_knots="false" /><inkscape:path-effect
       effect="fillet_chamfer"
       id="path-effect9"
       is_visible="true"
       lpeversion="1"
       nodesatellites_param="F,0,0,1,0,0.79375,0,1 @ F,0,0,1,0,0.79375,0,1 @ F,0,0,1,0,0.79375,0,1 @ F,0,0,1,0,0.79375,0,1"
       radius="3"
       unit="px"
       method="auto"
       mode="F"
       chamfer_steps="1"
       flexible="false"
       use_knot_distance="true"
       apply_no_radius="true"
       apply_with_radius="true"
       only_selected="false"
       hide_knots="false" /><inkscape:path-effect
       effect="fillet_chamfer"
       id="path-effect8"
       is_visible="true"
       lpeversion="1"
       nodesatellites_param="F,0,0,1,0,0,0,1 @ F,0,0,1,0,0,0,1 @ F,0,0,1,0,0,0,1 @ F,0,0,1,0,0,0,1 @ F,0,0,1,0,0,0,1 @ F,0,0,1,0,0,0,1 | F,0,0,1,0,0,0,1 @ F,0,0,1,0,0,0,1 @ F,0,0,1,0,0,0,1 @ F,0,0,1,0,0,0,1 @ F,0,0,1,0,0,0,1 @ F,0,0,1,0,0,0,1"
       radius="0"
       unit="px"
       method="auto"
       mode="F"
       chamfer_steps="1"
       flexible="false"
       use_knot_distance="true"
       apply_no_radius="true"
       apply_with_radius="true"
       only_selected="false"
       hide_knots="false" /><inkscape:path-effect
       effect="fillet_chamfer"
       id="path-effect3"
       is_visible="true"
       lpeversion="1"
       nodesatellites_param="F,0,0,1,0,0.80567914,0,1 @ F,0,0,1,0,1.1084199,0,1 @ F,0,0,1,0,0,0,1 @ F,0,0,1,0,0.14557683,0,1 @ F,0,0,1,0,0.13161729,0,1 @ F,0,0,1,0,0,0,1 @ F,0,0,1,0,0.50974767,0,1 @ F,0,0,1,0,0.78458726,0,1 @ F,0,0,1,0,0,0,1 @ F,0,1,1,0,0,0,1 @ F,0,0,1,0,0.13161729,0,1 @ F,0,0,1,0,0,0,1 @ F,0,0,1,0,0,0,1"
       radius="0"
       unit="px"
       method="auto"
       mode="F"
       chamfer_steps="1"
       flexible="false"
       use_knot_distance="true"
       apply_no_radius="true"
       apply_with_radius="true"
       only_selected="false"
       hide_knots="false" /><inkscape:path-effect
       effect="fillet_chamfer"
       id="path-effect2"
       is_visible="true"
       lpeversion="1"
       nodesatellites_param="F,0,0,1,0,0,0,1 @ F,0,0,1,0,0.76258094,0,1 @ F,0,0,1,0,0,0,1 @ F,0,0,1,0,0,0,1 @ F,0,0,1,0,0,0,1 @ F,0,0,1,0,0,0,1 @ F,0,0,1,0,0,0,1 @ F,0,0,1,0,0,0,1 @ F,0,0,1,0,0,0,1 @ F,0,0,1,0,0,0,1 @ F,0,0,1,0,0,0,1 @ F,0,0,1,0,0,0,1 @ F,0,0,1,0,0,0,1 @ F,0,0,1,0,0,0,1"
       radius="0"
       unit="px"
       method="auto"
       mode="F"
       chamfer_steps="1"
       flexible="false"
       use_knot_distance="true"
       apply_no_radius="true"
       apply_with_radius="true"
       only_selected="false"
       hide_knots="false" /></defs><g
     inkscape:label="Logo"
     inkscape:groupmode="layer"
     id="layer1"
     style="display:inline;opacity:1"
     transform="translate(-1.7890373,0.23622259)"><path
       id="path1"
       style="display:inline;fill:none;fill-opacity:1;stroke:#9be812;stroke-width:2.646;stroke-linecap:butt;stroke-linejoin:round;stroke-dasharray:none;stroke-opacity:1;paint-order:stroke markers fill"
       inkscape:label="Hex"
       inkscape:transform-center-x="1.7091862e-06"
       d="M 209.40221,48.872986 126.99173,1.291394 44.478939,48.931897 v 22.076172 m 0,73.205871 82.512791,47.6405 82.51279,-47.6405 v -30.90716"
       sodipodi:nodetypes="cccccccc" /><path
       style="fill:#9be812;fill-opacity:1;stroke:none;stroke-width:2.64583;stroke-linejoin:miter;stroke-dasharray:none;stroke-opacity:1;paint-order:stroke markers fill"
       d="m 75.424162,147.58969 c -0.03889,-0.90481 -0.05415,-2.14139 -0.06011,-3.02564 -0.0041,-0.61145 0.492224,-1.12451 1.104,-1.14629 34.416768,-1.22542 28.507628,-1.86048 38.908848,-1.98327 6.00691,0.541 6.7041,1.3491 10.67976,1.433 0.0799,0.002 0.16914,-0.0578 0.20566,-0.12941 0.086,-0.16855 0.18202,-0.27989 0.32605,-0.33403 0.0677,-0.0255 0.18617,-0.0296 0.25885,-0.0287 5.52126,0.0684 8.94144,-4.74264 14.02522,-5.33388 3.42557,-0.0941 15.38342,3.80697 36.56987,4.87779 0.28103,0.0142 0.65225,0.20754 0.76154,0.46608 0.44645,1.05614 0.36825,2.82669 0.27402,3.84168 -0.04,0.43074 -0.44179,0.7892 -0.87488,0.80337 -28.77373,0.94148 -30.0059,2.19175 -35.97633,2.26096 -5.40369,-0.0904 -8.71025,-1.76035 -12.37669,-1.6964 -0.0305,-0.004 -0.0251,0.0576 -0.10488,0.13711 -0.0509,0.0508 -0.16265,0.0792 -0.23532,0.0806 -5.87916,0.11885 -8.78711,4.42264 -14.79901,4.84748 -4.03711,0.0477 -7.64528,-1.38655 -13.87763,-1.94735 -7.779165,-0.73888 -17.902556,-1.91712 -23.956228,-2.27534 -0.442876,-0.0262 -0.83364,-0.40327 -0.852744,-0.84779 z"
       id="path2"
       sodipodi:nodetypes="cccccccccccccc"
       inkscape:original-d="m 75.474798,148.39371 c -0.119631,-1.22116 -0.11447,-4.9368 -0.11447,-4.9368 35.651552,-1.25105 29.505132,-1.89833 40.016572,-2.02242 6.07901,0.54749 6.72007,1.36854 10.82436,1.43571 0.12585,-0.29629 0.25376,-0.46207 0.51437,-0.49741 5.59878,0.14738 9.03276,-4.73541 14.15681,-5.33133 3.4529,-0.0948 15.57478,3.86947 37.07875,4.90288 1.01271,1.28691 0.43598,5.06068 0.43598,5.06068 -29.5361,0.94422 -30.73631,2.21649 -36.76051,2.28632 -5.40369,-0.0904 -8.71025,-1.76035 -12.37669,-1.6964 -0.04,-0.005 -0.0183,0.10241 -0.2086,0.2158 -5.9677,0.0566 -8.87402,4.42143 -14.93061,4.84943 -4.03711,0.0477 -7.64528,-1.38655 -13.87763,-1.94735 -8.133873,-0.77257 -18.830633,-2.02548 -24.758332,-2.31911 z"
       inkscape:path-effect="#path-effect3"
       inkscape:label="Hélice" /><path
       sodipodi:type="star"
       style="fill:#9be812;fill-opacity:1;stroke-width:2.55464;paint-order:stroke markers fill"
       id="path3"
       inkscape:flatsided="false"
       sodipodi:sides="5"
       sodipodi:cx="100.09244"
       sodipodi:cy="51.636471"
       sodipodi:r1="5.4350162"
       sodipodi:r2="1.9993273"
       sodipodi:arg1="0.94059913"
       sodipodi:arg2="1.5689054"
       inkscape:rounded="0"
       inkscape:randomized="0"
       d="m 103.29531,56.027482 -3.19909,-2.391687 -3.190138,2.40369 1.286054,-3.781594 -3.271852,-2.291219 3.993922,0.05453 1.168024,-3.819742 1.18232,3.815298 3.99373,-0.06951 -3.2632,2.303449 z"
       inkscape:transform-center-x="-0.0099340517"
       inkscape:transform-center-y="-0.52777336"
       transform="matrix(1.0087664,0,0,1.0633456,-0.84539327,-2.9061237)"
       inkscape:label="Star_1" /><path
       sodipodi:type="star"
       style="display:inline;opacity:1;fill:#9be812;fill-opacity:1;stroke-width:2.55464;paint-order:stroke markers fill"
       id="path3-2"
       inkscape:flatsided="false"
       sodipodi:sides="5"
       sodipodi:cx="100.09244"
       sodipodi:cy="51.636471"
       sodipodi:r1="5.4350162"
       sodipodi:r2="1.9993273"
       sodipodi:arg1="0.94059913"
       sodipodi:arg2="1.5689054"
       inkscape:rounded="0"
       inkscape:randomized="0"
       d="m 103.29531,56.027482 -3.19909,-2.391687 -3.190138,2.40369 1.286054,-3.781594 -3.271852,-2.291219 3.993922,0.05453 1.168024,-3.819742 1.18232,3.815298 3.99373,-0.06951 -3.2632,2.303449 z"
       inkscape:transform-center-x="-0.0099340517"
       inkscape:transform-center-y="-0.52777336"
       transform="matrix(1.0087664,0,0,1.0633456,52.782607,-2.9061237)"
       inkscape:label="Star_2" /></g><g
     inkscape:groupmode="layer"
     id="layer3"
     inkscape:label="Lettres"
     style="display:inline;opacity:1"
     transform="translate(-1.7890373,0.23622259)"><path
       id="path5"
       style="display:inline;opacity:1;fill:#9be812;fill-opacity:1;stroke-width:2.64583;paint-order:stroke markers fill"
       d="m 17.297652,91.763908 c -0.510776,-0.007 -1.032365,0.01347 -1.563212,0.06253 -3.42866,0.31686 -13.9454019,1.752865 -13.9454019,1.752865 v 33.949867 c 0,0 13.3622009,-1.80321 14.6151289,-2.11667 9.799312,-2.45164 14.638682,-11.24409 14.235823,-19.67218 C 30.275776,98.120707 24.9593,91.868838 17.297652,91.763908 Z m 8.484236,14.752582 c 0.428401,6.59964 -4.079997,12.60509 -9.433532,13.91544 -3.29015,0.80531 -9.7435909,1.56766 -9.7435909,1.56766 V 97.86121 c 0,0 5.6370569,-0.867505 8.2164819,-1.043722 7.466329,-0.510074 10.629215,4.593282 10.960641,9.699002 z"
       sodipodi:nodetypes="ssccsssssccss"
       inkscape:label="D" /><path
       style="display:inline;opacity:1;fill:#9be812;fill-opacity:1;stroke-width:2.64583;paint-order:stroke markers fill"
       d="m 35.393535,122.99431 4.844,-0.65369 -0.02087,-29.041923 c 0,0 6.234011,-0.807232 8.149637,-1.003536 2.798887,-0.286817 5.331502,1.482559 5.54255,4.740776 0.221642,3.421773 -3.078973,6.734303 -5.338438,7.054213 -2.113272,0.29921 -6.43552,0.71792 -6.43552,0.71792 v 2.67891 l 12.264578,12.94252 6.30919,-0.85142 c 0,0 -10.573248,-11.17048 -10.710682,-11.30562 6.984228,-2.3987 8.940416,-7.82615 8.768579,-12.495645 -0.211941,-5.759264 -5.366946,-8.950048 -10.546248,-8.464316 -3.332633,0.312545 -12.832292,1.719786 -12.832292,1.719786 z"
       id="path9"
       sodipodi:nodetypes="cccssscccccsscc"
       inkscape:label="R" /><path
       id="path10"
       style="display:inline;opacity:1;fill:#9be812;fill-opacity:1;stroke-width:2.64583;paint-order:stroke markers fill"
       d="m -9.7985267,114.64397 a 18.514999,16.222 0 0 0 -13.9929563,-5.59903 18.514999,16.222 0 0 0 -18.514888,16.22209 18.514999,16.222 0 0 0 18.515004,16.22192 18.514999,16.222 0 0 0 18.5148885,-16.2221 18.514999,16.222 0 0 0 -4.5220482,-10.62288 z m -3.8740153,2.94085 a 13.388874,11.730721 -180 0 1 3.270281,7.68203 13.388874,11.730721 -180 0 1 -13.389126,11.73072 13.388874,11.730721 -180 0 1 -13.388812,-11.73088 13.388874,11.730721 -180 0 1 13.388736,-11.73037 13.388874,11.730721 -180 0 1 10.118921,4.0485 z"
       transform="rotate(-48.965138)"
       inkscape:label="O_1" /><path
       style="display:inline;opacity:1;fill:#9be812;fill-opacity:1;stroke-width:2.64583;paint-order:stroke markers fill"
       d="m 101.25244,114.10679 0.0232,-33.953002 3.65546,-0.493296 16.7233,21.599088 -10e-6,-23.853803 4.77078,-0.644105 7.1e-4,34.018928 -3.84063,0.44737 -16.50598,-21.472182 0.032,23.695312 z"
       id="path13"
       sodipodi:nodetypes="ccccccccccc"
       inkscape:label="N" /><path
       id="path14"
       style="display:inline;opacity:1;fill:#9be812;fill-opacity:1;stroke-width:2.64583;paint-order:stroke markers fill"
       d="m 148.7283,73.339273 a 16.222,18.514999 41.034862 0 0 -13.41004,6.879166 16.222,18.514999 41.034862 0 0 0.0811,24.616071 16.222,18.514999 41.034862 0 0 24.3918,-3.31608 16.222,18.514999 41.034862 0 0 -0.0811,-24.616071 16.222,18.514999 41.034862 0 0 -10.98175,-3.563086 z m -0.32505,4.852931 a 11.730721,13.388874 41.034862 0 1 7.94163,2.576586 11.730721,13.388874 41.034862 0 1 0.0584,17.800985 11.730721,13.388874 41.034862 0 1 -17.63872,2.397785 11.730721,13.388874 41.034862 0 1 -0.0584,-17.800463 11.730721,13.388874 41.034862 0 1 9.69708,-4.974893 z"
       inkscape:label="O_2" /><path
       style="display:inline;opacity:1;fill:#9be812;fill-opacity:1;stroke-width:2.64583;paint-order:stroke markers fill"
       d="m 170.11037,70.863167 4.85261,-0.6551 v 29.150749 l 16.01658,-2.372489 0.013,5.010213 -20.89394,2.78755 z"
       id="path16"
       sodipodi:nodetypes="ccccccc"
       inkscape:label="L" /><path
       id="path17"
       style="display:inline;opacity:1;fill:#9be812;fill-opacity:1;stroke-width:2.64583;paint-order:stroke markers fill"
       d="m 210.58608,65.402575 -3.95112,0.533195 -13.43587,35.76301 5.20961,-0.70303 4.2549,-10.702037 12.02045,-1.637109 4.19966,9.576086 5.20114,-0.701883 z m -1.88874,7.573849 4.2447,11.552783 -8.66459,1.145667 z"
       sodipodi:nodetypes="ccccccccccccc"
       inkscape:label="A" /><path
       id="path19"
       style="display:inline;opacity:1;fill:#9be812;fill-opacity:1;stroke-width:2.64583;paint-order:stroke markers fill"
       d="m 240.04323,61.548698 c -4.33289,0.481148 -13.62897,1.717897 -13.62897,1.717897 l 0.008,33.948759 c 0,0 12.08858,-1.512691 16.85891,-2.323373 4.95045,-0.841291 8.48299,-6.203761 8.33438,-10.925948 -0.13437,-4.269704 -1.59094,-6.729099 -5.28866,-8.195981 3.06591,-2.328023 3.84076,-5.979829 3.04271,-8.565885 -1.55502,-5.038974 -5.43106,-6.088046 -9.32656,-5.655469 z m 0.66146,4.514453 c 1.9952,-0.197328 3.55204,1.207616 3.85299,3.175 0.32283,2.110441 -1.31053,5.346536 -3.37344,5.638932 -2.90195,0.411321 -10.00455,1.41027 -10.00455,1.41027 v -9.083186 c 0,0 5.89726,-0.782228 9.525,-1.141016 z m 0.41341,13.592968 c 2.97701,-0.36417 5.14212,0.469316 5.63893,4.01836 0.35,2.500285 -1.81494,6.419138 -4.77904,6.813021 -3.56991,0.474386 -10.7983,1.422135 -10.7983,1.422135 V 80.879817 c 0,0 6.73309,-0.831597 9.93841,-1.223698 z"
       sodipodi:nodetypes="sccsscsssssccssssccs"
       inkscape:label="B" /><g
       inkscape:groupmode="layer"
       id="layer4"
       inkscape:label="Ets"><path
         style="display:inline;opacity:1;fill:#9be812;fill-opacity:1;stroke-width:2.64583;paint-order:stroke markers fill"
         d="m 135.59251,54.740868 c 0.0335,-0.10215 0.33823,-0.704544 0.51143,-1.019817 0.39554,0.285021 0.9985,0.757292 1.90941,0.982928 0.92645,0.229484 1.91974,-0.0085 2.0061,-0.712859 0.12419,-1.012978 -1.2798,-1.116903 -2.55186,-1.691731 -1.21803,-0.550412 -1.45203,-1.515338 -1.19106,-2.355617 0.2801,-0.901867 1.33779,-1.417457 2.48572,-1.359247 1.09939,0.05575 1.44498,0.268714 2.43045,0.758346 -0.0459,0.07023 -0.45798,0.860285 -0.47955,0.892969 -0.55509,-0.242039 -1.13048,-0.558845 -1.90958,-0.692145 -0.80337,-0.137454 -1.28812,0.200438 -1.43279,0.714077 -0.11726,0.416315 0.14509,0.807403 0.68851,1.099803 0.54342,0.292401 1.16476,0.396481 1.83886,0.626493 0.99663,0.340062 1.52383,1.40965 1.30934,2.250671 -0.25923,1.016454 -1.25434,1.641748 -2.69191,1.630041 -1.09904,-0.009 -2.03625,-0.537479 -2.92307,-1.123915 z"
         id="path35"
         sodipodi:nodetypes="ccsasasccsassascc"
         inkscape:label="S" /><path
         style="display:inline;opacity:1;fill:#9be812;fill-opacity:1;stroke-width:2.64583;paint-order:stroke markers fill"
         d="m 124.32042,49.666315 v -1.058338 h 5.58927 v 1.058338 h -2.38052 v 6.132881 h -1.05833 v -6.132881 z"
         id="path34"
         inkscape:label="T" /><path
         style="display:inline;opacity:1;fill:#9be812;fill-opacity:1;stroke-width:2.64583;paint-order:stroke markers fill"
         d="m 113.0951,48.607977 h 5.09817 l 0.009,1.058336 -4.04917,2e-6 v 1.933681 l 3.64849,1e-6 v 1.058341 l -3.64849,-10e-7 v 2.082531 h 4.03984 v 1.058328 h -5.09817 z"
         id="path31"
         inkscape:label="E"
         sodipodi:nodetypes="ccccccccccccc" /></g></g><g
     inkscape:groupmode="layer"
     id="layer2"
     inkscape:label="Construction"
     style="display:none;opacity:0.451"
     transform="translate(-1.7890373,0.23622259)"><rect
       style="display:inline;opacity:1;fill:#ff0000;stroke-width:2.64583;paint-order:stroke markers fill"
       id="rect21-0"
       width="250.21413"
       height="1.8167312"
       x="-15.282258"
       y="126.62283"
       transform="rotate(-7.6855172)" /><rect
       style="display:inline;opacity:1;fill:#ff0000;stroke-width:2.64583;paint-order:stroke markers fill"
       id="rect21"
       width="250.21413"
       height="1.8167312"
       x="-10.741925"
       y="91.161209"
       transform="rotate(-7.6855172)" /><rect
       style="fill:#ff0000;stroke-width:2.64583;paint-order:stroke markers fill"
       id="rect26"
       width="5.2916665"
       height="1.0583333"
       x="117.82227"
       y="45.581806" /><rect
       style="fill:#ff0000;stroke-width:2.64583;paint-order:stroke markers fill"
       id="rect28"
       width="5.2916665"
       height="1.0583333"
       x="-51.931808"
       y="119.93894"
       transform="rotate(-90)" /><rect
       style="display:inline;opacity:1;fill:#ff0000;stroke-width:2.64583;paint-order:stroke markers fill"
       id="rect1"
       width="250.21413"
       height="1.8167312"
       x="-8.6063643"
       y="79.060982"
       transform="rotate(-7.6855172)" /><rect
       style="display:inline;opacity:1;fill:#ff0000;stroke-width:2.64583;paint-order:stroke markers fill"
       id="rect2"
       width="250.21413"
       height="1.8167312"
       x="-16.335106"
       y="138.31644"
       transform="rotate(-7.6855172)" /><path
       id="path7"
       style="display:inline;fill:#000000;stroke:none;stroke-width:9.86135;stroke-linecap:round;stroke-linejoin:round;stroke-dasharray:none;stroke-opacity:1;paint-order:normal"
       inkscape:transform-center-x="1.5737103e-06"
       inkscape:transform-center-y="-1.2196428e-06"
       d="M 471.19564,5.3661745 160.34499,184.83601 a 1.8330877,1.8330877 119.99999 0 0 -0.91654,1.5875 v 358.93968 a 1.8330877,1.8330877 60.000009 0 0 0.91654,1.5875 l 310.85065,179.46983 a 1.8330913,1.8330913 7.6170603e-5 0 0 1.83308,10e-6 L 783.88129,546.95068 a 1.8330821,1.8330821 120.00007 0 0 0.91654,-1.58749 V 186.42351 a 1.8330821,1.8330821 59.999933 0 0 -0.91654,-1.58749 L 473.02872,5.366172 a 1.8330913,1.8330913 179.99992 0 0 -1.83308,2.5e-6 z m 1.83308,11.3906415 300.97582,173.774494 a 1.8331188,1.8331188 60.00043 0 1 0.91654,1.58751 v 347.54905 a 1.8331188,1.8331188 119.99957 0 1 -0.91654,1.58751 l -300.97582,173.7745 a 1.8330177,1.8330177 7.9066327e-5 0 1 -1.83307,0 L 170.22174,541.25538 a 1.8331247,1.8331247 60.000509 0 1 -0.91653,-1.58751 V 192.11882 a 1.8331246,1.8331246 119.99949 0 1 0.91653,-1.58751 L 471.19565,16.756819 a 1.8330177,1.8330177 179.99992 0 1 1.83307,-3e-6 z"
       transform="matrix(0.26830339,0,0,0.26830339,0.27333996,-1.5541619)"
       inkscape:path-effect="#path-effect10"
       inkscape:original-d="M 472.11218,4.8370075 159.42845,185.36518 V 546.42152 L 472.11218,726.94969 784.79783,546.42152 V 185.36518 Z m 0,11.3906285 302.8089,174.832854 V 540.7262 L 472.11218,715.55906 169.30521,540.7262 V 191.06049 Z" /></g></svg>
